<?xml version="1.0" encoding="utf-8"?>
<!-- Generator: Adobe Illustrator 23.0.3, SVG Export Plug-In . SVG Version: 6.00 Build 0)  -->
<svg version="1.1" id="圖層_1" xmlns="http://www.w3.org/2000/svg" xmlns:xlink="http://www.w3.org/1999/xlink" x="0px" y="0px"
	 viewBox="0 0 800 800" style="enable-background:new 0 0 800 800;" xml:space="preserve">
<style type="text/css">
	.st0{fill-rule:evenodd;clip-rule:evenodd;fill:#FFFFFF;}
</style>
<title>list [#1508]</title>
<desc>Created with Sketch.</desc>
<g id="Page-1">
	<g id="Dribbble-Light-Preview" transform="translate(-139.000000, -285.000000)">
		<g id="icons" transform="translate(56.000000, 160.000000)">
			<path class="st0" d="M143,639.3h-40c-11,0-20,8.5-20,19v38.1c0,10.5,9,19,20,19h40c11,0,20-8.5,20-19v-38.1
				C163,647.8,154,639.3,143,639.3 M143,334.8h-40c-11,0-20,8.5-20,19v38.1c0,10.5,9,19,20,19h40c11,0,20-8.5,20-19v-38.1
				C163,343.3,154,334.8,143,334.8 M143,486.9h-40c-11,0-20,8.5-20,19V544c0,10.5,9,19,20,19h40c11,0,20-8.5,20-19V506
				C163,495.4,154,486.9,143,486.9 M863,639.3H263c-11,0-20,8.5-20,19v38.1c0,10.5,9,19,20,19h600c11,0,20-8.5,20-19v-38.1
				C883,647.8,874,639.3,863,639.3 M863,334.5H263c-11,0-20,8.5-20,19v38.1c0,10.5,9,19,20,19h600c11,0,20-8.5,20-19v-38.1
				C883,343.1,874,334.5,863,334.5 M883,506V544c0,10.5-9,19-20,19H263c-11,0-20-8.5-20-19V506c0-10.5,9-19,20-19h600
				C874,486.9,883,495.4,883,506"/>
		</g>
	</g>
</g>
</svg>
