<?xml version="1.0" encoding="utf-8"?>
<!-- Generator: Adobe Illustrator 23.0.3, SVG Export Plug-In . SVG Version: 6.00 Build 0)  -->
<svg version="1.1" id="_x32_" xmlns="http://www.w3.org/2000/svg" xmlns:xlink="http://www.w3.org/1999/xlink" x="0px" y="0px"
	 viewBox="0 0 800 800" style="enable-background:new 0 0 800 800;" xml:space="preserve">
<style type="text/css">
	.st0{fill:#FFFFFF;}
</style>
<g>
	<path class="st0" d="M741.7,190.5L476.4,94.1v29l255.9,93.2c2.9,1,5.5,2.5,7.8,4.3c1.1,0.8,2.3,1.9,3.3,2.9c7,7.5,9.7,18.6,6,29
		L566.8,754c-5.4,14.7-21.7,22.3-36.4,16.9L207.8,653.5c-4.8-1.8-8.9-4.7-12-8.5h-30.9c5.3,15.3,17.1,28.2,33.5,34.2l322.6,117.5
		c20.5,7.5,42.4,2.2,57.2-11.8c2.1-1.9,4-4,5.8-6.3c3.5-4.5,6.4-9.6,8.4-15.2L775,261.9C785.5,233,770.6,201,741.7,190.5z"/>
	<path class="st0" d="M646.1,327.8l1.1-0.7c7.7-9.6,36.8-29.4,46.1-32.6l0.5-0.4l-0.1-0.7c-5.1-8.4-14.7-42.3-14.4-54.6l-0.4-1.2
		l-1.1,0.7c-7.7,9.6-36.8,29.4-46.1,32.6l-0.5,0.4l0.1,0.7c5.1,8.4,14.7,42.3,14.3,54.6L646.1,327.8z"/>
	<path class="st0" d="M476.4,589.2v-83.5c0,0,0,0,0,0l0-4c1.6-1.2,3.1-2.2,4.6-3.4c1-0.7,2.1-1.5,3.2-2.2
		c22.6-16,46.1-30.2,57.3-33.9l1.3-0.9l-0.3-1.6c-4.1-6.7-9.5-20.6-14.6-37.1c-0.9-2.9-1.9-6-2.8-9.1c-4.9-16.8-9.6-35.2-12.5-51.1
		c-2-10.6-3.3-20.2-3.4-27.1v-3.3c-0.1-1-0.2-1.8-0.8-2c-0.7-0.2-1.3,0.2-2,1c-0.1,0.2-0.3,0.4-0.5,0.6c-0.3,0.3-0.6,0.7-0.9,1.2
		c-4.6,5.4-11.9,12.2-20.6,19.2c-2.5,2.1-5,4.2-7.8,6.3v137.1c0,0,0,0,0,0V342.3c0,0,0,0,0,0v-11.5c0,0,0,0,0,0V55.7
		c0-30.8-24.9-55.7-55.7-55.7H77.4C46.6,0,21.7,24.9,21.7,55.7v533.6c0,30.8,24.9,55.7,55.7,55.7h343.3
		C451.5,644.9,476.4,620,476.4,589.2z M49,589.2V55.7C49,40,61.7,27.4,77.3,27.3h343.3c15.7,0,28.3,12.7,28.4,28.4v533.6
		c0,15.7-12.7,28.3-28.4,28.4H77.4C61.7,617.6,49,604.9,49,589.2z"/>
	<path class="st0" d="M322.2,239.3c-27.2-21.6-65.1-6.5-73.2,23.7c-8-30.2-46-45.3-73.2-23.7c-26,20.7-23.9,61.9,1.6,95
		c23.5,30.6,60.3,60,70.3,80.4l1.3,1l1.4-1c9.9-20.4,46.7-49.9,70.3-80.4C346.1,301.3,348.2,260,322.2,239.3z"/>
	<path class="st0" d="M156.6,76c-12.3-9.8-29.5-2.9-33.2,10.8c-3.6-13.7-20.8-20.5-33.2-10.8c-11.8,9.4-10.9,28,0.7,43
		c10.7,13.9,27.4,27.2,31.8,36.4l0.6,0.5l0.6-0.5c4.5-9.2,21.2-22.6,31.8-36.4C167.4,104,168.4,85.4,156.6,76z"/>
	<path class="st0" d="M374.6,522.2c-3.6-13.7-20.8-20.5-33.1-10.8c-11.8,9.4-10.9,28.1,0.7,43c10.7,13.9,27.3,27.2,31.8,36.4
		l0.6,0.5l0.6-0.5c4.5-9.3,21.2-22.6,31.8-36.4c11.6-15,12.5-33.6,0.7-43C395.4,501.6,378.2,508.5,374.6,522.2z"/>
</g>
</svg>
